<svg width="32" height="32" viewBox="0 0 32 32" xmlns="http://www.w3.org/2000/svg">
  <!-- Watermelon slice shape -->
  <path d="M16 2 C24 2 30 8 30 16 C30 24 24 30 16 30 C8 30 2 24 2 16 C2 8 8 2 16 2 Z" fill="#4CAF50"/>
  <!-- Watermelon rind -->
  <path d="M16 2 C24 2 30 8 30 16 C30 24 24 30 16 30 C8 30 2 24 2 16 C2 8 8 2 16 2 Z M16 4 C9.2 4 4 9.2 4 16 C4 22.8 9.2 28 16 28 C22.8 28 28 22.8 28 16 C28 9.2 22.8 4 16 4 Z" fill="#388E3C"/>
  <!-- Pink flesh -->
  <path d="M16 6 C20.4 6 24 9.6 24 14 C24 18.4 20.4 22 16 22 C11.6 22 8 18.4 8 14 C8 9.6 11.6 6 16 6 Z" fill="#E91E63"/>
  <!-- Seeds -->
  <circle cx="12" cy="12" r="0.8" fill="#000"/>
  <circle cx="18" cy="16" r="0.8" fill="#000"/>
  <circle cx="14" cy="18" r="0.8" fill="#000"/>
  <circle cx="20" cy="10" r="0.8" fill="#000"/>
  <circle cx="10" cy="16" r="0.8" fill="#000"/>
</svg>